<svg xmlns="http://www.w3.org/2000/svg" width="16.184" height="16.184" viewBox="0 0 16.184 16.184">
  <g id="plus" transform="translate(0 -0.002)">
    <g id="Group_7" data-name="Group 7" transform="translate(0 0.002)">
      <path id="Path_9" data-name="Path 9" d="M15.3,6.83H9.356V.9A.894.894,0,0,0,8.473,0h-.76a.9.9,0,0,0-.885.9V6.83H.885A.884.884,0,0,0,0,7.713v.765a.883.883,0,0,0,.885.881H6.828v5.953a.877.877,0,0,0,.885.875h.76a.876.876,0,0,0,.883-.875V9.358H15.3a.883.883,0,0,0,.886-.881V7.713A.885.885,0,0,0,15.3,6.83Z" transform="translate(0 -0.002)" fill="#fff"/>
    </g>
  </g>
</svg>
