<svg xmlns="http://www.w3.org/2000/svg" width="10.428" height="10.428" viewBox="0 0 10.428 10.428"><defs><style>.a{fill:#fff;}</style></defs><g transform="translate(-11 -15.5)"><g transform="translate(11 15.5)"><g transform="translate(0)"><g transform="translate(0 0.195)"><path class="a" d="M11.938,23.756H11.9a.261.261,0,0,1-.243-.174,4.9,4.9,0,0,1-.66-2.5,5.257,5.257,0,0,1,3.719-5.005.355.355,0,0,1,.313.07.316.316,0,0,1,.139.278v4.1a.316.316,0,0,1-.1.243l-2.885,2.885A.375.375,0,0,1,11.938,23.756Zm2.537-6.848A4.554,4.554,0,0,0,11.7,21.08a4.313,4.313,0,0,0,.348,1.738l2.433-2.433Z" transform="translate(-11 -16.061)"/></g><g transform="translate(1.425)"><path class="a" d="M18.889,25.928A5.209,5.209,0,0,1,15.2,24.4a.336.336,0,0,1,0-.487l3.337-3.337V15.848a.356.356,0,0,1,.348-.348h0a5.214,5.214,0,0,1,0,10.428Zm-2.955-1.773a4.53,4.53,0,1,0,3.3-7.96v4.519a.316.316,0,0,1-.1.243Z" transform="translate(-15.1 -15.5)"/></g></g></g></g></svg>