<svg xmlns="http://www.w3.org/2000/svg" width="7.463" height="8.421" viewBox="0 0 7.463 8.421"><defs><style>.a{fill:#fff;}</style></defs><g transform="translate(-77.911 -22.181)"><g transform="translate(77.911 22.181)"><g transform="translate(0 0)"><path class="a" d="M83.951,27.576l-.23.218-.552.523-.665.629-.567.537c-.089.084-.177.169-.267.253l-.04.035.087-.067a.526.526,0,0,1-.107.061l.1-.043a.553.553,0,0,1-.116.032l.114-.015a.561.561,0,0,1-.132,0l.114.015a.494.494,0,0,1-.116-.032l.1.043a.57.57,0,0,1-.107-.061l.087.067c-.1-.077-.184-.17-.273-.254l-.581-.55-.7-.658-.566-.536c-.106-.1-.216-.2-.314-.3q-.064-.071-.124-.147l.067.087a2.277,2.277,0,0,1-.287-.493l.043.1a2.283,2.283,0,0,1-.153-.564l.015.114a4.191,4.191,0,0,1-.019-.54V23.364c0-.139,0-.279,0-.417a.328.328,0,0,1,0-.051l-.015.114a.4.4,0,0,1,.021-.077l-.043.1a.381.381,0,0,1,.044-.077l-.067.087a.352.352,0,0,1,.062-.062l-.087.067a.393.393,0,0,1,.076-.044l-.1.043a.374.374,0,0,1,.086-.023l-.114.015a.423.423,0,0,1,.081,0l-.114-.015c.095.013.188.041.28.062l.589.135,1.055.241a5.206,5.206,0,0,0,.965.131,4.818,4.818,0,0,0,1.24-.123l.93-.212c.327-.075.652-.15.979-.224l.049-.009-.114.015a.423.423,0,0,1,.081,0l-.114-.015a.363.363,0,0,1,.086.023l-.1-.043a.386.386,0,0,1,.076.044l-.087-.067a.351.351,0,0,1,.062.062l-.067-.087a.345.345,0,0,1,.044.077l-.043-.1a.394.394,0,0,1,.021.077l-.015-.114a1.135,1.135,0,0,1,0,.132v2.927c0,.136,0,.273,0,.407,0,.069-.009.138-.017.205l.015-.114a2.246,2.246,0,0,1-.153.564l.043-.1a2.223,2.223,0,0,1-.287.493l.067-.087a2.4,2.4,0,0,1-.231.254.432.432,0,0,0,0,.609.433.433,0,0,0,.3.126.459.459,0,0,0,.3-.126,2.6,2.6,0,0,0,.781-1.5,3.215,3.215,0,0,0,.034-.436V23a.885.885,0,0,0-.032-.277.83.83,0,0,0-.176-.305.845.845,0,0,0-.135-.113.365.365,0,0,0-.066-.04.8.8,0,0,0-.347-.089.853.853,0,0,0-.2.024c-.174.037-.347.079-.52.119l-.905.207-.5.114c-.128.029-.258.052-.389.07l.114-.015a4.425,4.425,0,0,1-1.158,0l.114.015c-.238-.033-.472-.089-.706-.143l-.885-.2-.679-.156-.044-.01a.788.788,0,0,0-.578.083.779.779,0,0,0-.375.671v3.01c0,.115,0,.23,0,.346a2.553,2.553,0,0,0,.156.856,2.867,2.867,0,0,0,.2.433,2.808,2.808,0,0,0,.279.389,4.4,4.4,0,0,0,.357.359l.548.519.695.657.6.565c.089.084.177.169.266.253a.97.97,0,0,0,.178.135.824.824,0,0,0,.25.1.86.86,0,0,0,.269.019,1.121,1.121,0,0,0,.185-.031,1.171,1.171,0,0,0,.171-.07,1.018,1.018,0,0,0,.251-.19l.407-.386.659-.624.669-.633.445-.421.063-.059a.432.432,0,0,0,0-.609.433.433,0,0,0-.3-.126A.462.462,0,0,0,83.951,27.576Z" transform="translate(-77.911 -22.181)"/></g></g><g transform="translate(79.833 24.503)"><g transform="translate(0)"><path class="a" d="M301.589,293.893l.86.86.12.12a.437.437,0,0,0,.608,0l.6-.6.958-.958.217-.217a.432.432,0,0,0,0-.609.433.433,0,0,0-.3-.125.451.451,0,0,0-.3.125l-.6.6-.958.958-.217.217h.608l-.86-.86-.12-.12a.432.432,0,0,0-.609,0,.433.433,0,0,0-.126.3.452.452,0,0,0,.127.3Z" transform="translate(-301.462 -292.362)"/></g></g></g></svg>