<svg xmlns="http://www.w3.org/2000/svg" width="8.565" height="7.933" viewBox="0 0 8.565 7.933"><defs><style>.a{fill:#fff;}</style></defs><g transform="translate(0 0)"><path class="a" d="M8.621,4.8a1.123,1.123,0,0,0-.676,2.018L7.1,9.117a1.114,1.114,0,0,0-.869.105L4.971,8.038a1.123,1.123,0,1,0-1.843.377l-.956,2.079a1.123,1.123,0,1,0,.7.149l.877-1.913.167.018a1.114,1.114,0,0,0,.588-.167L5.761,9.74a1.123,1.123,0,1,0,1.93-.211L8.6,7.046h.018a1.123,1.123,0,0,0,0-2.246ZM2.3,12.03a.421.421,0,1,1,.421-.421A.421.421,0,0,1,2.3,12.03ZM3.927,8.046a.421.421,0,1,1,.421-.421A.421.421,0,0,1,3.927,8.046Zm2.86,2.571a.421.421,0,1,1,.421-.421A.421.421,0,0,1,6.787,10.617ZM8.621,6.344a.421.421,0,1,1,.421-.421A.421.421,0,0,1,8.621,6.344Z" transform="translate(-1.179 -4.8)"/></g></svg>