<svg xmlns="http://www.w3.org/2000/svg" width="9.199" height="9.199" viewBox="0 0 9.199 9.199"><defs><style>.a{fill:#fff;}</style></defs><g transform="translate(-6 -6)"><g transform="translate(6 6)"><g transform="translate(0 0)"><path class="a" d="M14.845,9.538h-.5A3.857,3.857,0,0,0,14,8.7l.355-.355a.354.354,0,0,0,0-.5l-1-1a.354.354,0,0,0-.5,0L12.5,7.2a3.843,3.843,0,0,0-.836-.347v-.5A.354.354,0,0,0,11.307,6H9.892a.354.354,0,0,0-.354.354v.5A3.845,3.845,0,0,0,8.7,7.2l-.355-.355a.354.354,0,0,0-.5,0l-1,1a.354.354,0,0,0,0,.5L7.2,8.7a3.849,3.849,0,0,0-.347.835h-.5A.354.354,0,0,0,6,9.892v1.415a.354.354,0,0,0,.354.354h.5A3.845,3.845,0,0,0,7.2,12.5l-.355.355a.354.354,0,0,0,0,.5l1,1a.354.354,0,0,0,.5,0L8.7,14a3.854,3.854,0,0,0,.835.347v.5a.354.354,0,0,0,.354.354h1.415a.354.354,0,0,0,.354-.354v-.5A3.854,3.854,0,0,0,12.5,14l.355.355a.354.354,0,0,0,.5,0l1-1a.354.354,0,0,0,0-.5L14,12.5a3.854,3.854,0,0,0,.347-.835h.5a.354.354,0,0,0,.354-.354V9.892A.354.354,0,0,0,14.845,9.538Zm-.354,1.415h-.425a.354.354,0,0,0-.347.283,3.154,3.154,0,0,1-.465,1.118.354.354,0,0,0,.045.445l.3.3-.5.5-.3-.3a.354.354,0,0,0-.445-.045,3.154,3.154,0,0,1-1.118.465.354.354,0,0,0-.283.347v.425h-.708v-.425a.354.354,0,0,0-.283-.347,3.152,3.152,0,0,1-1.118-.465A.354.354,0,0,0,8.4,13.3l-.3.3-.5-.5.3-.3a.354.354,0,0,0,.045-.445,3.158,3.158,0,0,1-.465-1.118.354.354,0,0,0-.347-.283H6.708v-.708h.425a.354.354,0,0,0,.347-.283,3.16,3.16,0,0,1,.464-1.118A.354.354,0,0,0,7.9,8.4l-.3-.3.5-.5.3.3a.354.354,0,0,0,.445.045,3.151,3.151,0,0,1,1.118-.464.354.354,0,0,0,.283-.347V6.708h.708v.425a.354.354,0,0,0,.283.347,3.154,3.154,0,0,1,1.118.464A.354.354,0,0,0,12.8,7.9l.3-.3.5.5-.3.3a.354.354,0,0,0-.045.445,3.154,3.154,0,0,1,.465,1.118.354.354,0,0,0,.347.284h.425Z" transform="translate(-6 -6)"/><path class="a" d="M18.831,16a2.831,2.831,0,1,0,2.831,2.831A2.834,2.834,0,0,0,18.831,16Zm0,4.953a2.123,2.123,0,1,1,2.123-2.123A2.125,2.125,0,0,1,18.831,20.953Z" transform="translate(-14.231 -14.231)"/><path class="a" d="M27.281,24.037a.354.354,0,0,0-.475.158l-.842,1.684-.361-.361a.354.354,0,1,0-.5.5l.708.708a.354.354,0,0,0,.25.1.383.383,0,0,0,.057,0,.354.354,0,0,0,.26-.191l1.061-2.123A.354.354,0,0,0,27.281,24.037Z" transform="translate(-21.639 -20.815)"/></g></g></g></svg>