<svg xmlns="http://www.w3.org/2000/svg" width="6.844" height="9.197" viewBox="0 0 6.844 9.197"><defs><style>.a{fill:#fff;}</style></defs><g transform="translate(-5.999 -2.07)"><g transform="translate(5.999 2.07)"><path class="a" d="M11.817,2.07H7.026A1.054,1.054,0,0,0,6,3.148v7.035a1.061,1.061,0,0,0,.684,1.006.982.982,0,0,0,.342.072,1.006,1.006,0,0,0,.736-.318l1.66-1.8,1.66,1.8a.982.982,0,0,0,1.1.253,1.061,1.061,0,0,0,.667-1.013V3.148A1.054,1.054,0,0,0,11.817,2.07Zm.342,8.113a.38.38,0,0,1-.233.37.294.294,0,0,1-.342-.086l-1.67-1.79a.684.684,0,0,0-.986,0l-1.67,1.79a.294.294,0,0,1-.342.086.38.38,0,0,1-.233-.37V3.148a.373.373,0,0,1,.342-.394h4.791a.373.373,0,0,1,.342.394Z" transform="translate(-5.999 -2.07)"/></g></g></svg>