<svg xmlns="http://www.w3.org/2000/svg" width="21" height="21" viewBox="0 0 21 21"><defs><style>.a{fill:#059fdf;}</style></defs><g transform="translate(-1 -1)"><g transform="translate(1 1)"><rect class="a" width="1.4" height="2.1" rx="0.7" transform="translate(0 12.719)"/><path class="a" d="M19.781,24.4H3.219A2.219,2.219,0,0,1,1,22.181V20.2a.7.7,0,0,1,.7-.7h0a.7.7,0,0,1,.7.7v1.981A.819.819,0,0,0,3.219,23H19.781a.819.819,0,0,0,.819-.819V11.219a.819.819,0,0,0-.819-.819H3.219a.819.819,0,0,0-.819.819V13.9a.7.7,0,0,1-.7.7h0a.7.7,0,0,1-.7-.7V11.219A2.219,2.219,0,0,1,3.219,9H19.781A2.219,2.219,0,0,1,22,11.219V22.181A2.219,2.219,0,0,1,19.781,24.4Z" transform="translate(-1 -3.4)"/><rect class="a" width="14" height="1" rx="0.5" transform="translate(4 3)"/><rect class="a" width="9" height="1" rx="0.5" transform="translate(6)"/><path class="a" d="M15.389,14.719h-1.4A2.366,2.366,0,0,1,11.63,12.36V9h6.125v3.353a2.366,2.366,0,0,1-2.366,2.366ZM13.03,10.4v1.953a.966.966,0,0,0,.959.966h1.4a.966.966,0,0,0,.966-.959V10.4Z" transform="translate(-4.189 -3.4)"/></g></g></svg>