<svg id="right" xmlns="http://www.w3.org/2000/svg" width="512" height="512" viewBox="0 0 512 512">
  <g id="Group_9" data-name="Group 9">
    <g id="Group_8" data-name="Group 8">
      <path id="Path_12" data-name="Path 12" d="M437.019,74.98A256,256,0,0,0,74.98,437.019,256,256,0,1,0,437.019,74.98ZM256,482C131.383,482,30,380.617,30,256S131.383,30,256,30,482,131.383,482,256,380.617,482,256,482Z" fill="#1abc9c"/>
    </g>
  </g>
  <g id="Group_11" data-name="Group 11">
    <g id="Group_10" data-name="Group 10">
      <path id="Path_13" data-name="Path 13" d="M378.3,173.859a15,15,0,0,0-21.212,0L224.634,306.319l-69.727-69.727a15,15,0,1,0-21.213,21.213l80.333,80.333a15,15,0,0,0,21.212,0L378.3,195.072A15,15,0,0,0,378.3,173.859Z" fill="#1abc9c"/>
    </g>
  </g>
</svg>
