<svg xmlns="http://www.w3.org/2000/svg" width="329.27" height="329.263" viewBox="0 0 329.27 329.263">
  <g id="close" transform="translate(0 -0.135)">
    <path id="Path_10" data-name="Path 10" d="M21.34,329.4A21.332,21.332,0,0,1,6.258,292.984L292.848,6.39a21.329,21.329,0,0,1,30.164,30.164L36.422,323.148A21.231,21.231,0,0,1,21.34,329.4Zm0,0" fill="#fff"/>
    <path id="Path_11" data-name="Path 11" d="M307.93,329.4a21.273,21.273,0,0,1-15.082-6.25L6.258,36.554A21.329,21.329,0,0,1,36.422,6.39l286.59,286.594A21.332,21.332,0,0,1,307.93,329.4Zm0,0" fill="#fff"/>
  </g>
</svg>
