<svg xmlns="http://www.w3.org/2000/svg" width="521" height="521" viewBox="0 0 521 521">
  <g id="close_1_" data-name="close (1)" transform="translate(-455.5 -246.5)">
    <g id="Group_13" data-name="Group 13" transform="translate(460 251)">
      <g id="Group_12" data-name="Group 12">
        <path id="Path_14" data-name="Path 14" d="M256,0C114.844,0,0,114.844,0,256S114.844,512,256,512,512,397.156,512,256,397.156,0,256,0Zm0,490.667C126.6,490.667,21.333,385.4,21.333,256S126.6,21.333,256,21.333,490.667,126.6,490.667,256,385.4,490.667,256,490.667Z" fill="#e74c3c" stroke="#e74c3c" stroke-width="9"/>
        <path id="Path_15" data-name="Path 15" d="M359.542,152.458a10.662,10.662,0,0,0-15.083,0L256,240.917l-88.458-88.458a10.665,10.665,0,0,0-15.083,15.083L240.917,256l-88.458,88.458a10.666,10.666,0,1,0,15.084,15.083L256,271.083l88.458,88.458a10.666,10.666,0,1,0,15.084-15.083L271.083,256l88.458-88.458A10.664,10.664,0,0,0,359.542,152.458Z" fill="#e74c3c" stroke="#e74c3c" stroke-width="9"/>
      </g>
    </g>
  </g>
</svg>
