<svg xmlns="http://www.w3.org/2000/svg" xmlns:xlink="http://www.w3.org/1999/xlink" width="88.006" height="87.988" viewBox="0 0 88.006 87.988">
  <defs>
    <linearGradient id="linear-gradient" x1="0.5" y1="1" x2="0.5" gradientUnits="objectBoundingBox">
      <stop offset="0" stop-color="#12c2e9"/>
      <stop offset="0.5" stop-color="#00adf3"/>
      <stop offset="1" stop-color="#057"/>
    </linearGradient>
  </defs>
  <g id="Group_168" data-name="Group 168" transform="translate(-1021 -634)">
    <path id="time-tracking" d="M91.847,24.665A35.214,35.214,0,0,0,35.605,63.009H32.134a1.467,1.467,0,0,0-1.467,1.467v4.4H27.734a1.467,1.467,0,0,0-1.373.952L22.072,81.264,16.43,86.907A1.467,1.467,0,0,0,16,87.944v8.8a1.467,1.467,0,0,0,1.467,1.467h1.467a5.867,5.867,0,0,0,11.734,0h22a5.867,5.867,0,1,0,11.734,0h5.867a1.467,1.467,0,0,0,1.467-1.467V86.352A35.2,35.2,0,0,0,91.847,24.665ZM24.8,101.145a2.933,2.933,0,1,1,2.933-2.933A2.933,2.933,0,0,1,24.8,101.145Zm5.867-5.867h-.788a5.861,5.861,0,0,0-10.155,0h-.79V88.551l5.008-5.008h6.726Zm0-14.667H25.45l3.3-8.8h1.917Zm27.868,20.534a2.933,2.933,0,1,1,2.933-2.933A2.933,2.933,0,0,1,58.535,101.145ZM68.8,95.278H63.614a5.861,5.861,0,0,0-10.155,0H33.6V89.411H68.8Zm0-8.8H33.6V65.943H68.8Zm1.467-23.468H45.146a26.454,26.454,0,0,1-2.7-10.267H46.8a1.467,1.467,0,1,0,0-2.933H42.443A26.444,26.444,0,0,1,65.869,25.038v4.236a1.467,1.467,0,0,0,2.933,0v-4.4a26.434,26.434,0,0,1,26.36,24.935H90.8a1.467,1.467,0,1,0,0,2.933h4.359A26.379,26.379,0,0,1,71.736,77.514V64.476A1.467,1.467,0,0,0,70.269,63.009ZM93.2,72.4A32.045,32.045,0,0,1,71.736,83.409V80.465A29.336,29.336,0,0,0,68.8,21.941c-.4,0-.8.01-1.194.026a1.446,1.446,0,0,0-.7.037,29.338,29.338,0,0,0-25,41.006H38.736A32.272,32.272,0,1,1,93.2,72.4ZM24.8,87.944a1.467,1.467,0,1,1,1.467,1.467A1.467,1.467,0,0,1,24.8,87.944Zm58.67-35.2H67.336a1.467,1.467,0,0,1-1.037-.43l-13.2-13.2a1.467,1.467,0,1,1,2.074-2.074L67.943,49.809H83.47a1.467,1.467,0,1,1,0,2.933Z" transform="translate(1005 617.91)" fill="url(#linear-gradient)"/>
  </g>
</svg>
