<svg xmlns="http://www.w3.org/2000/svg" width="16.194" height="15.768" viewBox="0 0 16.194 15.768"><defs><style>.a{fill:#048ac9;}</style></defs><g transform="translate(-3 -14)"><g transform="translate(3 14)"><g transform="translate(0 0)"><path class="a" d="M6.835,17.639A.655.655,0,0,1,7.475,17H3.639A.655.655,0,0,0,3,17.639H3a.655.655,0,0,0,.639.639H7.475A.655.655,0,0,1,6.835,17.639Z" transform="translate(-3 -15.722)"/><path class="a" d="M14.565,17H13.5a.639.639,0,0,1,0,1.278H24.58a.655.655,0,0,0,.639-.639h0A.655.655,0,0,0,24.58,17Z" transform="translate(-9.025 -15.722)"/><path class="a" d="M10.918,14a1.918,1.918,0,1,0,1.918,1.918A1.91,1.91,0,0,0,10.918,14Zm0,2.557a.639.639,0,1,1,.639-.639A.655.655,0,0,1,10.918,16.557Z" transform="translate(-6.443 -14)"/><path class="a" d="M6.835,45.639A.655.655,0,0,1,7.475,45H3.639A.655.655,0,0,0,3,45.639H3a.655.655,0,0,0,.639.639H7.475A.655.655,0,0,1,6.835,45.639Z" transform="translate(-3 -31.789)"/><path class="a" d="M14.565,45H13.5a.639.639,0,1,1,0,1.278H24.58a.655.655,0,0,0,.639-.639h0A.655.655,0,0,0,24.58,45Z" transform="translate(-9.025 -31.789)"/><path class="a" d="M10.918,42a1.918,1.918,0,1,0,1.918,1.918A1.91,1.91,0,0,0,10.918,42Zm0,2.557a.639.639,0,1,1,.639-.639A.655.655,0,0,1,10.918,44.557Z" transform="translate(-6.443 -30.068)"/><path class="a" d="M31.139,31.639a.655.655,0,0,1-.639.639h3.835a.655.655,0,0,0,.639-.639h0A.655.655,0,0,0,34.335,31H30.5A.655.655,0,0,1,31.139,31.639Z" transform="translate(-18.781 -23.755)"/><path class="a" d="M13.654,32.278h1.065a.639.639,0,1,1,0-1.278H3.639A.655.655,0,0,0,3,31.639H3a.655.655,0,0,0,.639.639Z" transform="translate(-3 -23.755)"/><path class="a" d="M27.918,31.835A1.918,1.918,0,1,0,26,29.918,1.91,1.91,0,0,0,27.918,31.835Zm0-2.557a.639.639,0,1,1-.639.639A.655.655,0,0,1,27.918,29.278Z" transform="translate(-16.198 -22.034)"/></g><g transform="translate(0 0)"><path class="a" d="M6.835,17.639A.655.655,0,0,1,7.475,17H3.639A.655.655,0,0,0,3,17.639H3a.655.655,0,0,0,.639.639H7.475A.655.655,0,0,1,6.835,17.639Z" transform="translate(-3 -15.722)"/><path class="a" d="M14.565,17H13.5a.639.639,0,0,1,0,1.278H24.58a.655.655,0,0,0,.639-.639h0A.655.655,0,0,0,24.58,17Z" transform="translate(-9.025 -15.722)"/><path class="a" d="M10.918,14a1.918,1.918,0,1,0,1.918,1.918A1.91,1.91,0,0,0,10.918,14Zm0,2.557a.639.639,0,1,1,.639-.639A.655.655,0,0,1,10.918,16.557Z" transform="translate(-6.443 -14)"/><path class="a" d="M6.835,45.639A.655.655,0,0,1,7.475,45H3.639A.655.655,0,0,0,3,45.639H3a.655.655,0,0,0,.639.639H7.475A.655.655,0,0,1,6.835,45.639Z" transform="translate(-3 -31.789)"/><path class="a" d="M14.565,45H13.5a.639.639,0,1,1,0,1.278H24.58a.655.655,0,0,0,.639-.639h0A.655.655,0,0,0,24.58,45Z" transform="translate(-9.025 -31.789)"/><path class="a" d="M10.918,42a1.918,1.918,0,1,0,1.918,1.918A1.91,1.91,0,0,0,10.918,42Zm0,2.557a.639.639,0,1,1,.639-.639A.655.655,0,0,1,10.918,44.557Z" transform="translate(-6.443 -30.068)"/><path class="a" d="M31.139,31.639a.655.655,0,0,1-.639.639h3.835a.655.655,0,0,0,.639-.639h0A.655.655,0,0,0,34.335,31H30.5A.655.655,0,0,1,31.139,31.639Z" transform="translate(-18.781 -23.755)"/><path class="a" d="M13.654,32.278h1.065a.639.639,0,1,1,0-1.278H3.639A.655.655,0,0,0,3,31.639H3a.655.655,0,0,0,.639.639Z" transform="translate(-3 -23.755)"/><path class="a" d="M27.918,31.835A1.918,1.918,0,1,0,26,29.918,1.91,1.91,0,0,0,27.918,31.835Zm0-2.557a.639.639,0,1,1-.639.639A.655.655,0,0,1,27.918,29.278Z" transform="translate(-16.198 -22.034)"/></g></g></g></svg>