<svg xmlns="http://www.w3.org/2000/svg" width="23.793" height="23.793" viewBox="0 0 23.793 23.793">
  <g id="filter" transform="translate(0 0)">
    <path id="Path_1" data-name="Path 1" d="M19.536,0H4.256A4.261,4.261,0,0,0,0,4.256v15.28a4.261,4.261,0,0,0,4.256,4.256h15.28a4.261,4.261,0,0,0,4.256-4.256V4.256A4.261,4.261,0,0,0,19.536,0ZM22.4,19.536A2.866,2.866,0,0,1,19.536,22.4H4.256a2.866,2.866,0,0,1-2.862-2.862V4.256A2.866,2.866,0,0,1,4.256,1.394h15.28A2.866,2.866,0,0,1,22.4,4.256Z" fill="#706c6c"/>
    <path id="Path_2" data-name="Path 2" d="M81.39,81.827H70.773a2.19,2.19,0,0,0-4.152,0H64.964a.7.7,0,1,0,0,1.394h1.657a2.19,2.19,0,0,0,4.152,0H81.39a.7.7,0,1,0,0-1.394ZM68.7,83.32a.8.8,0,1,1,.8-.8A.8.8,0,0,1,68.7,83.32Z" transform="translate(-61.281 -76.601)" fill="#706c6c"/>
    <path id="Path_3" data-name="Path 3" d="M81.39,210.36H79.732a2.19,2.19,0,0,0-4.152,0H64.964a.7.7,0,1,0,0,1.394H75.581a2.19,2.19,0,0,0,4.152,0H81.39a.7.7,0,1,0,0-1.394Zm-3.733,1.493a.8.8,0,1,1,.8-.8A.8.8,0,0,1,77.657,211.853Z" transform="translate(-61.281 -199.161)" fill="#706c6c"/>
    <path id="Path_4" data-name="Path 4" d="M81.39,338.893h-7.63a2.19,2.19,0,0,0-4.152,0H64.964a.7.7,0,0,0,0,1.394h4.644a2.19,2.19,0,0,0,4.152,0h7.63a.7.7,0,1,0,0-1.394Zm-9.706,1.493a.8.8,0,1,1,.8-.8A.8.8,0,0,1,71.684,340.386Z" transform="translate(-61.281 -321.721)" fill="#706c6c"/>
  </g>
</svg>
