<svg xmlns="http://www.w3.org/2000/svg" width="18.761" height="18.761" viewBox="0 0 18.761 18.761">
  <path id="info" d="M9.381,0a9.381,9.381,0,1,0,9.381,9.381A9.391,9.391,0,0,0,9.381,0Zm.61,14.946c-.446.074-1.332.26-1.783.3a1.1,1.1,0,0,1-.96-.5,1.172,1.172,0,0,1-.142-1.074L8.879,8.794H7.035a2.2,2.2,0,0,1,1.735-2.05,6.788,6.788,0,0,1,1.783-.3,1.414,1.414,0,0,1,.96.5,1.172,1.172,0,0,1,.142,1.074L9.882,12.9h1.843a2.076,2.076,0,0,1-1.734,2.048Zm.562-9.083A1.173,1.173,0,1,1,11.726,4.69,1.173,1.173,0,0,1,10.553,5.863Z" fill="#249ffe"/>
</svg>
