<svg xmlns="http://www.w3.org/2000/svg" width="496.158" height="496.152" viewBox="0 0 496.158 496.152">
  <g id="info-tip" transform="translate(0 -0.003)">
    <path id="Path_15" data-name="Path 15" d="M496.158,248.085C496.158,111.063,385.089,0,248.083,0S0,111.063,0,248.085c0,137,111.07,248.07,248.083,248.07S496.158,385.086,496.158,248.085Z" fill="#ff3030"/>
    <g id="Group_103" data-name="Group 103">
      <path id="Path_16" data-name="Path 16" d="M315.249,359.555a5,5,0,0,0-6.27-1.7c-24.582,11.637-52.482,23.94-57.958,25.015a4.829,4.829,0,0,1-.644-.737,6.554,6.554,0,0,1-1.1-4.015c0-13.9,10.5-56.205,31.192-125.719,17.451-58.406,19.469-70.5,19.469-74.514a18.964,18.964,0,0,0-6.865-15.146c-4.267-3.519-10.229-5.3-17.719-5.3-12.459,0-26.9,4.73-44.146,14.461-16.713,9.433-35.352,25.41-55.4,47.487a5,5,0,0,0,5.591,7.992c7.037-2.872,42.4-17.359,47.557-20.6,4.221-2.646,7.875-3.989,10.861-3.989.107,0,.2,0,.276.01a5.279,5.279,0,0,1,.07.933,37.769,37.769,0,0,1-1.856,10.7c-30.136,97.641-44.785,157.5-44.785,182.994,0,9,2.5,16.242,7.432,21.528,5.025,5.393,11.8,8.127,20.146,8.127,8.891,0,19.712-3.714,33.08-11.354,12.936-7.392,32.68-23.653,60.363-49.717A5,5,0,0,0,315.249,359.555Z" fill="#fff"/>
      <path id="Path_17" data-name="Path 17" d="M314.282,76.672a25.193,25.193,0,0,0-18.729-7.6c-9.34,0-17.475,3.691-24.176,10.971a37.331,37.331,0,0,0-9.938,26.113c0,8.033,2.463,14.69,7.32,19.785a24.567,24.567,0,0,0,18.476,7.794c8.958,0,17.049-3.9,24.047-11.586a38.175,38.175,0,0,0,10.363-26.393C321.646,88.105,319.169,81.684,314.282,76.672Z" fill="#fff"/>
    </g>
  </g>
</svg>
