<svg xmlns="http://www.w3.org/2000/svg" width="11.636" height="7.25" viewBox="0 0 11.636 7.25"><defs><style>.a{fill:#fff;}</style></defs><g transform="translate(-5.009 -21.967)"><g transform="translate(5.009 21.967)"><path class="a" d="M11.643,974.33a.517.517,0,0,0-.477.388l-1.681,6.207a.519.519,0,0,0,1,.271l1.681-6.207a.517.517,0,0,0-.525-.659Zm-3.015.647a.517.517,0,0,0-.319.117l-3.1,2.457a.517.517,0,0,0,0,.812l3.1,2.457a.517.517,0,1,0,.638-.812l-2.59-2.048,2.59-2.053a.517.517,0,0,0-.319-.929Zm4.384,0a.517.517,0,0,0-.307.929l2.59,2.053-2.59,2.049a.517.517,0,1,0,.638.812l3.1-2.457a.517.517,0,0,0,0-.812l-3.1-2.457A.517.517,0,0,0,13.013,974.976Z" transform="translate(-5.009 -974.329)"/></g></g></svg>