<svg xmlns="http://www.w3.org/2000/svg" xmlns:xlink="http://www.w3.org/1999/xlink" width="77.325" height="93.208" viewBox="0 0 77.325 93.208">
  <defs>
    <linearGradient id="linear-gradient" x1="0.5" y1="1.342" x2="0.5" y2="-0.283" gradientUnits="objectBoundingBox">
      <stop offset="0" stop-color="#12c2e9"/>
      <stop offset="0.431" stop-color="#00b1f8"/>
      <stop offset="1" stop-color="#057"/>
    </linearGradient>
    <linearGradient id="linear-gradient-2" x1="0.5" y1="2.702" x2="0.5" y2="-2.733" gradientUnits="objectBoundingBox">
      <stop offset="0" stop-color="#12c2e9"/>
      <stop offset="0.5" stop-color="#00a4e5"/>
      <stop offset="1" stop-color="#057"/>
    </linearGradient>
    <linearGradient id="linear-gradient-3" x1="0.5" y1="6.066" x2="0.5" y2="-6.122" gradientUnits="objectBoundingBox">
      <stop offset="0" stop-color="#12c2e9"/>
      <stop offset="0.5" stop-color="#18a8e2"/>
      <stop offset="1" stop-color="#0b5370"/>
    </linearGradient>
    <linearGradient id="linear-gradient-4" x1="0.5" y1="4.81" x2="0.5" y2="-7.378" gradientUnits="objectBoundingBox">
      <stop offset="0" stop-color="#12c2e9"/>
      <stop offset="0.5" stop-color="#0eb6f9"/>
      <stop offset="1" stop-color="#f64f59"/>
    </linearGradient>
  </defs>
  <g id="Group_167" data-name="Group 167" transform="translate(-645 -632)">
    <path id="Path_7" data-name="Path 7" d="M38.661,93.208a38.837,38.837,0,0,0,1.553-77.635V1.553a1.553,1.553,0,1,0-3.107,0v14.02a38.837,38.837,0,0,0,1.553,77.635Zm0-59.032a1.554,1.554,0,0,0,1.553-1.553V31.5a3.107,3.107,0,1,1-3.107,0v1.122a1.554,1.554,0,0,0,1.553,1.553Zm-1.553-15.5v9.5a6.214,6.214,0,1,0,3.107,0v-9.5a35.729,35.729,0,1,1-3.107,0Zm0,0" transform="translate(645.002 632)" fill="url(#linear-gradient)"/>
    <path id="Path_8" data-name="Path 8" d="M143.725,283.651a1.553,1.553,0,0,0,2.175-.31l18.642-24.855a1.554,1.554,0,0,0-2.486-1.864l-18.642,24.855A1.553,1.553,0,0,0,143.725,283.651Zm0,0" transform="translate(529.686 425.712)" fill="url(#linear-gradient-2)"/>
    <path id="Path_9" data-name="Path 9" d="M133.316,268.428a6.214,6.214,0,1,0-6.214-6.214A6.214,6.214,0,0,0,133.316,268.428Zm0-9.321a3.107,3.107,0,1,1-3.107,3.107A3.107,3.107,0,0,1,133.316,259.107Zm0,0" transform="translate(542.579 425.711)" fill="url(#linear-gradient-3)"/>
    <path id="Path_10" data-name="Path 10" d="M207.1,342.214A6.214,6.214,0,1,0,213.316,336,6.214,6.214,0,0,0,207.1,342.214Zm9.321,0a3.107,3.107,0,1,1-3.107-3.107A3.107,3.107,0,0,1,216.423,342.214Zm0,0" transform="translate(478.114 361.245)" fill="url(#linear-gradient-4)"/>
  </g>
</svg>
