<svg id="open-menu" xmlns="http://www.w3.org/2000/svg" width="55.658" height="40.197" viewBox="0 0 55.658 40.197">
  <path id="Path_6" data-name="Path 6" d="M53.339,127.306H2.319a2.319,2.319,0,1,1,0-4.638h51.02a2.319,2.319,0,1,1,0,4.638Zm0,0" transform="translate(0 -104.888)" fill="#707070"/>
  <path id="Path_7" data-name="Path 7" d="M53.339,4.638H2.319A2.319,2.319,0,0,1,2.319,0h51.02a2.319,2.319,0,1,1,0,4.638Zm0,0" fill="#707070"/>
  <path id="Path_8" data-name="Path 8" d="M53.339,249.97H2.319a2.319,2.319,0,1,1,0-4.638h51.02a2.319,2.319,0,1,1,0,4.638Zm0,0" transform="translate(0 -209.773)" fill="#707070"/>
</svg>
