<svg xmlns="http://www.w3.org/2000/svg" width="60.816" height="44.734" viewBox="0 0 60.816 44.734">
  <g id="quote" transform="translate(0 -59.294)">
    <path id="path-1_77_" d="M24.231,75.933H3.916A16.739,16.739,0,0,1,20.5,61.022h1.864V57.294H20.5A20.526,20.526,0,0,0,0,77.8v22.367a1.863,1.863,0,0,0,1.864,1.864H24.231a1.863,1.863,0,0,0,1.864-1.864V77.8A1.863,1.863,0,0,0,24.231,75.933ZM22.367,98.3H3.728V79.661H22.367Z" transform="translate(0 2)" fill="#057"/>
    <path id="path-1_76_" d="M282.054,75.933H261.739a16.739,16.739,0,0,1,16.587-14.911h1.864V57.294h-1.864a20.526,20.526,0,0,0-20.5,20.5v22.367a1.863,1.863,0,0,0,1.864,1.864h22.367a1.863,1.863,0,0,0,1.864-1.864V77.8A1.863,1.863,0,0,0,282.054,75.933ZM280.19,98.3H261.551V79.661H280.19Z" transform="translate(-223.102 2)" fill="#057"/>
  </g>
</svg>
