<svg xmlns="http://www.w3.org/2000/svg" width="721.347" height="678.537" viewBox="0 0 721.347 678.537">
  <g id="Group_1593" data-name="Group 1593" transform="translate(-2158.338 -6059.125)">
    <g id="file" transform="translate(2341 6059.125)">
      <g id="Group_1592" data-name="Group 1592" transform="translate(56)">
        <g id="Group_1591" data-name="Group 1591">
          <path id="Path_1148" data-name="Path 1148" d="M529.494,91.574,447.332,9.245A31.277,31.277,0,0,0,425.045,0H87.479A31.479,31.479,0,0,0,56,31.48V598.11a31.479,31.479,0,0,0,31.48,31.48H507.206a31.479,31.479,0,0,0,31.479-31.479v-484.3a31.275,31.275,0,0,0-9.191-22.237ZM517.7,598.11a10.494,10.494,0,0,1-10.494,10.49H87.479a10.494,10.494,0,0,1-10.493-10.489V31.48A10.494,10.494,0,0,1,87.479,20.986H423.261V94.439a31.479,31.479,0,0,0,31.479,31.479h41.973V104.932H454.74A10.494,10.494,0,0,1,444.247,94.44V35.866L514.635,106.4a10.4,10.4,0,0,1,3.064,7.408Z" transform="translate(-56)" fill="#bfc3c9"/>
        </g>
      </g>
    </g>
    <g id="Group_1590" data-name="Group 1590" transform="translate(-724 210)">
      <g id="growth" transform="translate(3138 6028)">
        <path id="Path_1140" data-name="Path 1140" d="M402.215,40.116H8.558A8.558,8.558,0,0,1,8.558,23H402.215a8.558,8.558,0,0,1,0,17.116Z" transform="translate(0 354.546)" fill="#bfc3c9"/>
        <path id="Path_1141" data-name="Path 1141" d="M95.135,136.809H9.558A8.561,8.561,0,0,1,1,128.251V34.116A17.133,17.133,0,0,1,18.116,17H86.578a17.133,17.133,0,0,1,17.116,17.116v94.135A8.561,8.561,0,0,1,95.135,136.809Zm-77.02-17.116H86.578V34.116H18.116Z" transform="translate(16.116 257.852)" fill="#bfc3c9"/>
        <path id="Path_1142" data-name="Path 1142" d="M103.135,233.5H17.558A8.561,8.561,0,0,1,9,224.944V28.116A17.133,17.133,0,0,1,26.116,11H94.578a17.133,17.133,0,0,1,17.116,17.116V224.944A8.561,8.561,0,0,1,103.135,233.5Zm-77.02-17.116H94.578V28.116H26.116Z" transform="translate(287.04 161.159)" fill="#bfc3c9"/>
        <path id="Path_1143" data-name="Path 1143" d="M111.135,201.271H25.558A8.561,8.561,0,0,1,17,192.713V30.116A17.133,17.133,0,0,1,34.116,13h68.462a17.133,17.133,0,0,1,17.116,17.116v162.6a8.561,8.561,0,0,1-8.559,8.555Zm-77.02-17.116h68.462V30.116H34.116Z" transform="translate(140.964 193.39)" fill="#bfc3c9"/>
        <path id="Path_1144" data-name="Path 1144" d="M10.562,172.159A8.549,8.549,0,0,1,4.5,157.56L90.081,71.982a8.5,8.5,0,0,1,8.13-2.259l132.235,33.05L329.715,3.5a8.556,8.556,0,1,1,12.1,12.1L239.123,118.3a8.518,8.518,0,0,1-8.13,2.242L98.758,87.506,16.6,169.66a8.527,8.527,0,0,1-6.042,2.5Z" transform="translate(32.227)" fill="#bfc3c9"/>
        <path id="Path_1145" data-name="Path 1145" d="M94.02,86.578a8.561,8.561,0,0,1-8.558-8.558V18.12h-59.9A8.56,8.56,0,1,1,25.56,1H94.02a8.561,8.561,0,0,1,8.558,8.558V78.02A8.561,8.561,0,0,1,94.02,86.578Z" transform="translate(273.964 0.004)" fill="#bfc3c9"/>
      </g>
      <rect id="Rectangle_891" data-name="Rectangle 891" width="70" height="189" transform="translate(3450 6217)" fill="#059fdf"/>
    </g>
    <g id="star" transform="translate(2158.338 6413)">
      <path id="Path_1146" data-name="Path 1146" d="M162.331,0A162.331,162.331,0,1,0,324.662,162.331,162.331,162.331,0,0,0,162.331,0Z" fill="#059fdf"/>
      <path id="Path_1147" data-name="Path 1147" d="M301.406,157.769a6.764,6.764,0,0,0-6.4-4.573H225.178l-25.351-63.39a7.048,7.048,0,0,0-12.567,0L161.923,153.2H92.094a6.764,6.764,0,0,0-4.153,12.1l57.316,44.641-19.1,69.992a6.764,6.764,0,0,0,10.281,7.4l57.113-38.094,57.127,38.08a6.764,6.764,0,0,0,10.281-7.4l-19.114-70.045,57.316-44.641a6.765,6.765,0,0,0,2.245-7.464Z" transform="translate(-31.22 -31.448)" fill="#fafafa"/>
    </g>
  </g>
</svg>
