<svg xmlns="http://www.w3.org/2000/svg" width="9.705" height="11.183" viewBox="0 0 9.705 11.183"><defs><style>.a{fill:#fff;}</style></defs><g transform="translate(-8.8 -2.55)"><circle class="a" cx="1.213" cy="1.213" r="1.213" transform="translate(12.439 7.667)"/><path class="a" d="M13.652,4.04h-.365l.554-.554a.55.55,0,1,0-.777-.777L11.58,4.2a.541.541,0,0,0,0,.777l1.5,1.5a.55.55,0,0,0,.777-.777L13.3,5.147h.353a3.741,3.741,0,1,1-2.815,1.272.551.551,0,1,0-.824-.73A4.849,4.849,0,1,0,13.652,4.04Z" transform="translate(0)"/></g></svg>