<svg id="settings" xmlns="http://www.w3.org/2000/svg" width="18" height="18" viewBox="0 0 18 18">
  <g id="Group_3306" data-name="Group 3306" transform="translate(6.363 6.363)">
    <g id="Group_3305" data-name="Group 3305">
      <path id="Path_5620" data-name="Path 5620" d="M183.637,181a2.637,2.637,0,1,0,2.637,2.637A2.64,2.64,0,0,0,183.637,181Z" transform="translate(-181 -181)" fill="#646464"/>
    </g>
  </g>
  <g id="Group_3308" data-name="Group 3308">
    <g id="Group_3307" data-name="Group 3307">
      <path id="Path_5621" data-name="Path 5621" d="M18,10.487V7.513l-2.44-.48a6.777,6.777,0,0,0-.531-1.278l1.362-2.042-2.1-2.1L12.245,2.971a6.776,6.776,0,0,0-1.278-.531L10.487,0H7.513l-.48,2.44a6.777,6.777,0,0,0-1.278.531L3.712,1.609l-2.1,2.1L2.971,5.755A6.776,6.776,0,0,0,2.44,7.032L0,7.513v2.975l2.44.48a6.777,6.777,0,0,0,.531,1.278L1.609,14.288l2.1,2.1,2.042-1.362a6.776,6.776,0,0,0,1.278.531L7.513,18h2.975l.48-2.44a6.777,6.777,0,0,0,1.278-.531l2.042,1.362,2.1-2.1-1.362-2.042a6.776,6.776,0,0,0,.531-1.278Zm-9,2.2A3.691,3.691,0,1,1,12.691,9,3.7,3.7,0,0,1,9,12.691Z" fill="#646464"/>
    </g>
  </g>
</svg>
