<svg xmlns="http://www.w3.org/2000/svg" width="12.872" height="11.909" viewBox="0 0 12.872 11.909">
  <g id="sort-gray" transform="translate(-5 -17.799)">
    <path id="Path_4" data-name="Path 4" d="M5.259,54.166a.882.882,0,0,0,0,1.247L7.9,58.048a.909.909,0,0,0,.142.116l.029.016a.922.922,0,0,0,.122.064l.05.016a.862.862,0,0,0,.114.034.263.263,0,0,1,.079.008.852.852,0,0,0,.092.01q.04,0,.08-.006a.33.33,0,0,0,.088-.008.924.924,0,0,0,.1-.031.169.169,0,0,0,.061-.019.889.889,0,0,0,.108-.056c.014-.008.031-.014.045-.024a.88.88,0,0,0,.137-.113l2.635-2.645a.882.882,0,1,0-1.247-1.247L9.409,55.289V48.6a.885.885,0,0,0-1.77,0V55.3L6.513,54.171a.882.882,0,0,0-1.255,0Z" transform="translate(0 -28.604)" fill="#fff"/>
    <path id="Path_5" data-name="Path 5" d="M75.529,16.943a.882.882,0,0,0,0-1.247l-2.635-2.633a.91.91,0,0,0-.142-.116l-.029-.016a.922.922,0,0,0-.122-.064l-.05-.016a.863.863,0,0,0-.114-.034.263.263,0,0,1-.079-.008.848.848,0,0,0-.092-.01q-.041,0-.082.008a.277.277,0,0,0-.088.01.921.921,0,0,0-.1.031.17.17,0,0,0-.061.019.89.89,0,0,0-.108.056c-.014.008-.031.014-.045.024a.882.882,0,0,0-.137.113L69,15.7a.882.882,0,0,0,1.247,1.247l1.126-1.126v6.692a.885.885,0,0,0,1.77,0v-6.7l1.126,1.126a.882.882,0,0,0,1.263,0Z" transform="translate(-57.914 5)" fill="#fff"/>
  </g>
</svg>
