<svg xmlns="http://www.w3.org/2000/svg" width="45.623" height="28.815" viewBox="0 0 45.623 28.815">
  <g id="video-call" transform="translate(0 -93.099)">
    <path id="Path_5623" data-name="Path 5623" d="M28.214,40.815H5.4a5.411,5.411,0,0,1-5.4-5.4V17.4A5.411,5.411,0,0,1,5.4,12H28.214a5.411,5.411,0,0,1,5.4,5.4V35.412A5.411,5.411,0,0,1,28.214,40.815ZM5.4,15.6a1.8,1.8,0,0,0-1.8,1.8V35.412a1.8,1.8,0,0,0,1.8,1.8H28.214a1.8,1.8,0,0,0,1.8-1.8V17.4a1.8,1.8,0,0,0-1.8-1.8Z" transform="translate(0 81.099)" fill="#048ac9"/>
    <path id="Path_5624" data-name="Path 5624" d="M26.307,38.914a1.775,1.775,0,0,1-.74-.158l-12.006-5.4a1.8,1.8,0,1,1,1.477-3.282l9.468,4.257V17.087l-9.466,4.257a1.8,1.8,0,0,1-1.477-3.282l12.006-5.4A1.8,1.8,0,0,1,28.108,14.3V37.113a1.8,1.8,0,0,1-1.8,1.8Z" transform="translate(17.515 81.799)" fill="#048ac9"/>
  </g>
</svg>
