<svg xmlns="http://www.w3.org/2000/svg" width="21" height="21" viewBox="0 0 21 21">
  <g id="clock" transform="translate(0 0)">
    <path id="Path_225" data-name="Path 225" d="M18.791,5.525a.875.875,0,0,0-.407,1.169A8.661,8.661,0,0,1,19.25,10.5,8.75,8.75,0,1,1,10.5,1.75a8.645,8.645,0,0,1,5.432,1.888.875.875,0,1,0,1.089-1.37A10.5,10.5,0,1,0,21,10.5a10.393,10.393,0,0,0-1.041-4.568.874.874,0,0,0-1.169-.407Zm0,0" transform="translate(0 0)" fill="#815bff"/>
    <path id="Path_226" data-name="Path 226" d="M176.883,64a.884.884,0,0,0-.883.883v6.185a.884.884,0,0,0,.883.883H181.3a.884.884,0,0,0,0-1.767h-3.534v-5.3A.884.884,0,0,0,176.883,64Zm0,0" transform="translate(-166.413 -60.521)" fill="#815bff"/>
  </g>
</svg>
