<svg xmlns="http://www.w3.org/2000/svg" width="23.227" height="23.227" viewBox="0 0 23.227 23.227">
  <g id="Group_235" data-name="Group 235" transform="translate(-242.773 -34)">
    <g id="Group_234" data-name="Group 234" transform="translate(55 7)">
      <path id="Path_231" data-name="Path 231" d="M11.613,23.227A11.613,11.613,0,1,1,23.227,11.613,11.627,11.627,0,0,1,11.613,23.227Zm0-21.568a9.954,9.954,0,1,0,9.954,9.954A9.966,9.966,0,0,0,11.613,1.659Zm0,0" transform="translate(187.773 27)" fill="#878787"/>
      <path id="Path_232" data-name="Path 232" d="M155.412,156.242a.826.826,0,0,1-.587-.243l-8.3-8.3a.829.829,0,0,1,1.173-1.173l8.3,8.3a.83.83,0,0,1-.586,1.416Zm0,0" transform="translate(48.123 -112.652)" fill="#878787"/>
    </g>
    <path id="Path_233" data-name="Path 233" d="M147.115,156.241a.83.83,0,0,1-.586-1.416l8.3-8.3A.829.829,0,0,1,156,147.7l-8.3,8.3A.826.826,0,0,1,147.115,156.241Zm0,0" transform="translate(103.124 -105.65)" fill="#878787"/>
  </g>
</svg>
