<svg xmlns="http://www.w3.org/2000/svg" width="26.975" height="26.974" viewBox="0 0 26.975 26.974">
  <g id="Group_242" data-name="Group 242" transform="translate(-140.023 976.977)">
    <g id="Group_235" data-name="Group 235" transform="translate(140.023 -976.977)">
      <g id="Group_234" data-name="Group 234">
        <path id="Path_236" data-name="Path 236" d="M9.314,0H3.119A3.123,3.123,0,0,0,0,3.119V9.314a3.123,3.123,0,0,0,3.119,3.119H9.314a3.123,3.123,0,0,0,3.119-3.119V3.119A3.123,3.123,0,0,0,9.314,0Zm1.012,9.314a1.013,1.013,0,0,1-1.012,1.012H3.119A1.013,1.013,0,0,1,2.107,9.314V3.119A1.013,1.013,0,0,1,3.119,2.107H9.314a1.013,1.013,0,0,1,1.012,1.012Z" fill="#3783b5"/>
      </g>
    </g>
    <g id="Group_237" data-name="Group 237" transform="translate(154.564 -976.977)">
      <g id="Group_236" data-name="Group 236">
        <path id="Path_237" data-name="Path 237" d="M285.272,0h-6.111A3.165,3.165,0,0,0,276,3.161V9.272a3.165,3.165,0,0,0,3.161,3.161h6.111a3.165,3.165,0,0,0,3.161-3.161V3.161A3.165,3.165,0,0,0,285.272,0Zm1.054,9.272a1.055,1.055,0,0,1-1.054,1.054h-6.111a1.055,1.055,0,0,1-1.054-1.054V3.161a1.055,1.055,0,0,1,1.054-1.054h6.111a1.055,1.055,0,0,1,1.054,1.054Z" transform="translate(-276)" fill="#3783b5"/>
      </g>
    </g>
    <g id="Group_239" data-name="Group 239" transform="translate(140.023 -962.436)">
      <g id="Group_238" data-name="Group 238">
        <path id="Path_238" data-name="Path 238" d="M9.314,276H3.119A3.123,3.123,0,0,0,0,279.119v6.195a3.123,3.123,0,0,0,3.119,3.119H9.314a3.123,3.123,0,0,0,3.119-3.119v-6.195A3.123,3.123,0,0,0,9.314,276Zm1.012,9.314a1.013,1.013,0,0,1-1.012,1.012H3.119a1.013,1.013,0,0,1-1.012-1.012v-6.195a1.013,1.013,0,0,1,1.012-1.012H9.314a1.013,1.013,0,0,1,1.012,1.012Z" transform="translate(0 -276)" fill="#3783b5"/>
      </g>
    </g>
    <g id="Group_241" data-name="Group 241" transform="translate(154.564 -962.436)">
      <g id="Group_240" data-name="Group 240">
        <path id="Path_239" data-name="Path 239" d="M285.272,276h-6.111A3.165,3.165,0,0,0,276,279.161v6.111a3.165,3.165,0,0,0,3.161,3.161h6.111a3.165,3.165,0,0,0,3.161-3.161v-6.111A3.165,3.165,0,0,0,285.272,276Zm1.054,9.272a1.055,1.055,0,0,1-1.054,1.054h-6.111a1.055,1.055,0,0,1-1.054-1.054v-6.111a1.055,1.055,0,0,1,1.054-1.054h6.111a1.055,1.055,0,0,1,1.054,1.054Z" transform="translate(-276 -276)" fill="#3783b5"/>
      </g>
    </g>
  </g>
</svg>
