<svg xmlns="http://www.w3.org/2000/svg" width="33.936" height="26.997" viewBox="0 0 33.936 26.997">
  <g id="Group_243" data-name="Group 243" transform="translate(-177.294 977)">
    <path id="Path_240" data-name="Path 240" d="M0,7.509H7.509V0H0ZM1.989,1.989H5.521V5.521H1.989Zm0,0" transform="translate(177.294 -977)" fill="#3783b5"/>
    <path id="Path_241" data-name="Path 241" d="M149.3,0V7.509h24.041V0Zm22.052,5.521H151.286V1.989h20.063Zm0,0" transform="translate(37.892 -977)" fill="#3783b5"/>
    <path id="Path_242" data-name="Path 242" d="M0,154.517H7.509v-7.509H0ZM1.989,149H5.521v3.532H1.989Zm0,0" transform="translate(177.294 -1114.264)" fill="#3783b5"/>
    <path id="Path_243" data-name="Path 243" d="M149.3,154.517h24.041v-7.509H149.3ZM151.286,149h20.063v3.532H151.286Zm0,0" transform="translate(37.892 -1114.264)" fill="#3783b5"/>
    <path id="Path_244" data-name="Path 244" d="M0,301.522H7.509v-7.51H0ZM1.989,296H5.521v3.532H1.989Zm0,0" transform="translate(177.294 -1251.524)" fill="#3783b5"/>
    <path id="Path_245" data-name="Path 245" d="M149.3,301.522h24.041v-7.51H149.3ZM151.286,296h20.063v3.532H151.286Zm0,0" transform="translate(37.892 -1251.524)" fill="#3783b5"/>
  </g>
</svg>
