<svg xmlns="http://www.w3.org/2000/svg" width="21" height="21" viewBox="0 0 21 21">
  <g id="notification" transform="translate(-0.001)">
    <g id="Group_219" data-name="Group 219" transform="translate(0.001)">
      <path id="Path_230" data-name="Path 230" d="M10.5,0A10.5,10.5,0,1,0,21,10.5,10.5,10.5,0,0,0,10.5,0Zm0,16.307a1.365,1.365,0,0,1-1.365-1.365h2.73A1.365,1.365,0,0,1,10.5,16.307Zm4.612-2.734h0c0,.5-.409.538-.913.538H6.8c-.5,0-.913-.033-.913-.538v-.087a.911.911,0,0,1,.519-.821l.29-2.5A3.8,3.8,0,0,1,9.719,6.44V5.468a.782.782,0,0,1,1.564,0V6.44A3.8,3.8,0,0,1,14.3,10.162l.29,2.5a.911.911,0,0,1,.519.821Z" transform="translate(-0.001)" fill="#745a71"/>
    </g>
  </g>
</svg>
