<svg xmlns="http://www.w3.org/2000/svg" width="21" height="21" viewBox="0 0 21 21">
  <g id="Group_1" data-name="Group 1" transform="translate(-640 -530)">
    <g id="Group_211" data-name="Group 211" transform="translate(1172 1389)">
      <g id="Rectangle_51" data-name="Rectangle 51" transform="translate(-532 -859)" fill="#fff" stroke="#b50486" stroke-width="2">
        <rect width="21" height="21" rx="10.5" stroke="none"/>
        <rect x="1" y="1" width="19" height="19" rx="9.5" fill="none"/>
      </g>
    </g>
    <path id="pen" d="M.695,7.553A2.457,2.457,0,0,1,1.3,6.548L7.211.638a.223.223,0,0,1,.315,0l.033.033L8.025.2a.667.667,0,0,1,.95,0l.274.278a.669.669,0,0,1,0,.941l-.47.47.173.171a1.112,1.112,0,0,1,0,1.577l-1.78,1.78A.222.222,0,1,1,6.859,5.1l1.78-1.78a.667.667,0,0,0,.015-.928L5.991,5.055,5.5,5.541l-.315.315L2.9,8.146a2.456,2.456,0,0,1-1.005.607L.559,9.167a.222.222,0,0,1-.278-.278ZM8.933.789,8.659.511a.223.223,0,0,0-.317,0L7.873.986l.587.587L8.932,1.1A.223.223,0,0,0,8.933.789Zm-.6,1.291L7.368,1.11,5.007,3.471l.969.969ZM5.662,4.755l-.969-.969-.472.472.969.969Zm-.786.786-.969-.969-2.29,2.29q-.035.035-.068.071l.965.965c.024-.022.048-.044.071-.068ZM1.762,8.328a2,2,0,0,0,.385-.166L1.285,7.3a2,2,0,0,0-.166.385L.83,8.617Zm0,0" transform="translate(645.648 535.428)" fill="#b50486" stroke="#b50486" stroke-width="0.3"/>
  </g>
</svg>
